PathFileType	4	(X/Y/Z)	trial_0_0-299.trc
DataRate	CameraRate	NumFrames	NumMarkers	Units	OrigDataRate	OrigDataStartFrame	OrigNumFrames
60	60	19	27	m	60	149	299
Frame#	Time	RHip			RKnee			RAnkle			RBigToe			RSmallToe			RHeel			LHip			LKnee			LAnkle			LBigToe			LSmallToe			LHeel			Neck			Head			Nose			RShoulder			RElbow			RWrist			RThumb			RIndex			RPinky			LShoulder			LElbow			LWrist			LThumb			LIndex			LPinky		
		X1	Y1	Z1	X2	Y2	Z2	X3	Y3	Z3	X4	Y4	Z4	X5	Y5	Z5	X6	Y6	Z6	X7	Y7	Z7	X8	Y8	Z8	X9	Y9	Z9	X10	Y10	Z10	X11	Y11	Z11	X12	Y12	Z12	X13	Y13	Z13	X14	Y14	Z14	X15	Y15	Z15	X16	Y16	Z16	X17	Y17	Z17	X18	Y18	Z18	X19	Y19	Z19	X20	Y20	Z20	X21	Y21	Z21	X22	Y22	Z22	X23	Y23	Z23	X24	Y24	Z24	X25	Y25	Z25	X26	Y26	Z26	X27	Y27	Z27
150	2.5	0.11844137208904976	0.18734402457836627	0.014853558820836775	0.0	0.0	0.0	2.194043769063982	1.8442458150278498	0.16600797260290437	0.0	0.0	0.0	2.4957771123073615	2.089255180218015	0.14433840019206037	2.1872626908526955	1.8157155347113179	0.17944795200955305	0.0	0.0	0.0	0.0	0.0	0.0	0.0	0.0	0.0	0.0	0.0	0.0	0.0	0.0	0.0	0.0	0.0	0.0	0.0	0.0	0.0	0.0	0.0	0.0	0.0	0.0	0.0	0.09886064414962661	0.36344938367916757	0.07345002435914076	0.0	0.0	0.0	0.0	0.0	0.0	0.0	0.0	0.0	0.0	0.0	0.0	0.0	0.0	0.0	0.0	0.0	0.0	0.0	0.0	0.0	0.0	0.0	0.0	0.0	0.0	0.0	0.0	0.0	0.0	0.0	0.0	0.0
151	2.5166666666666666	0.25667865978664817	0.4060237541217808	0.03209137611930082	0.0	0.0	0.0	2.1934145086862973	1.8460850888834026	0.16420407073086746	0.0	0.0	0.0	2.4951141122882827	2.0876134672938527	0.14442286616009783	2.18739869670813	1.8156885581876023	0.1793904368729466	0.0	0.0	0.0	0.0	0.0	0.0	0.0	0.0	0.0	0.0	0.0	0.0	0.0	0.0	0.0	0.0	0.0	0.0	0.0	0.0	0.0	0.0	0.0	0.0	0.0	0.0	0.0	0.16858918769141937	0.6181366471201271	0.12489581691800382	0.0	0.0	0.0	0.0	0.0	0.0	0.0	0.0	0.0	0.0	0.0	0.0	0.0	0.0	0.0	0.0	0.0	0.0	0.0	0.0	0.0	0.0	0.0	0.0	0.0	0.0	0.0	0.0	0.0	0.0	0.0	0.0	0.0
152	2.533333333333333	0.4557373126050137	0.7209295171875433	0.0567265425069837	0.0	0.0	0.0	2.192647516343497	1.8469417631176852	0.16263989374231935	0.0	0.0	0.0	2.493339206837594	2.0838005480712334	0.14485164650940313	2.187678386099189	1.8154799664445271	0.1792954816326944	0.0	0.0	0.0	0.0	0.0	0.0	0.0	0.0	0.0	0.0	0.0	0.0	0.0	0.0	0.0	0.0	0.0	0.0	0.0	0.0	0.0	0.0	0.0	0.0	0.0	0.0	0.0	0.23202851587912532	0.8484068828240066	0.17138847724538417	0.0	0.0	0.0	0.0	0.0	0.0	0.0	0.0	0.0	0.0	0.0	0.0	0.0	0.0	0.0	0.0	0.0	0.0	0.0	0.0	0.0	0.0	0.0	0.0	0.0	0.0	0.0	0.0	0.0	0.0	0.0	0.0	0.0
153	2.55	0.6737043778003993	1.065716612989195	0.08335120636460419	0.0	0.0	0.0	2.192117607620735	1.8470253918951203	0.161586466565127	0.0	0.0	0.0	2.490366317632054	2.0780598148976916	0.14560190166778986	2.188026638263583	1.8150329331747521	0.1791201436545301	0.0	0.0	0.0	0.0	0.0	0.0	0.0	0.0	0.0	0.0	0.0	0.0	0.0	0.0	0.0	0.0	0.0	0.0	0.0	0.0	0.0	0.0	0.0	0.0	0.0	0.0	0.0	0.258466225890877	0.942581542599465	0.19037691388766897	0.0	0.0	0.0	0.0	0.0	0.0	0.0	0.0	0.0	0.0	0.0	0.0	0.0	0.0	0.0	0.0	0.0	0.0	0.0	0.0	0.0	0.0	0.0	0.0	0.0	0.0	0.0	0.0	0.0	0.0	0.0	0.0	0.0
154	2.566666666666667	0.8434993198245395	1.3341695430738951	0.10356951073073116	0.0	0.0	0.0	2.1916977261690356	1.846403369597955	0.1609270663330492	0.0	0.0	0.0	2.486703469687376	2.07168408429344	0.14668436175483376	2.188247926710739	1.8141714320957822	0.17871872610113587	0.0	0.0	0.0	0.0	0.0	0.0	0.0	0.0	0.0	0.0	0.0	0.0	0.0	0.0	0.0	0.0	0.0	0.0	0.0	0.0	0.0	0.0	0.0	0.0	0.0	0.0	0.0	0.23325011695671838	0.8485969831295432	0.17136557703867292	0.0	0.0	0.0	0.0	0.0	0.0	0.0	0.0	0.0	0.0	0.0	0.0	0.0	0.0	0.0	0.0	0.0	0.0	0.0	0.0	0.0	0.0	0.0	0.0	0.0	0.0	0.0	0.0	0.0	0.0	0.0	0.0	0.0
155	2.583333333333333	0.9069469179882572	1.4341922016443749	0.11041345352822893	0.0	0.0	0.0	2.190772352077843	1.844632373330135	0.16021610122779983	0.0	0.0	0.0	2.483251568024011	2.0666428290313856	0.14815532661120417	2.1880117175001024	1.812591517332637	0.1778270347420596	0.0	0.0	0.0	0.0	0.0	0.0	0.0	0.0	0.0	0.0	0.0	0.0	0.0	0.0	0.0	0.0	0.0	0.0	0.0	0.0	0.0	0.0	0.0	0.0	0.0	0.0	0.0	0.1703211227964621	0.618406163412047	0.12486334995915493	0.0	0.0	0.0	0.0	0.0	0.0	0.0	0.0	0.0	0.0	0.0	0.0	0.0	0.0	0.0	0.0	0.0	0.0	0.0	0.0	0.0	0.0	0.0	0.0	0.0	0.0	0.0	0.0	0.0	0.0	0.0	0.0	0.0
156	2.6	0.8420898464917705	1.3311521393263714	0.10164939571839746	0.0	0.0	0.0	2.1885867644244392	1.8411162277530209	0.1591293971993074	0.0	0.0	0.0	2.480644078043669	2.0643283588399925	0.1501137922150283	2.18690509760821	1.8100348561431006	0.17617402296536516	0.0	0.0	0.0	0.0	0.0	0.0	0.0	0.0	0.0	0.0	0.0	0.0	0.0	0.0	0.0	0.0	0.0	0.0	0.0	0.0	0.0	0.0	0.0	0.0	0.0	0.0	0.0	0.10032356062296505	0.3636770364486823	0.07342260043961807	0.0	0.0	0.0	0.0	0.0	0.0	0.0	0.0	0.0	0.0	0.0	0.0	0.0	0.0	0.0	0.0	0.0	0.0	0.0	0.0	0.0	0.0	0.0	0.0	0.0	0.0	0.0	0.0	0.0	0.0	0.0	0.0	0.0
157	2.6166666666666667	0.6716292882965945	1.061215905945748	0.080463865452029	0.0	0.0	0.0	2.18477087730796	1.8358208954029873	0.15783526440284712	0.0	0.0	0.0	2.4788112548824643	2.064556527173126	0.1526745816926246	2.1846612140815127	1.806599419222818	0.1737288453680616	0.0	0.0	0.0	0.0	0.0	0.0	0.0	0.0	0.0	0.0	0.0	0.0	0.0	0.0	0.0	0.0	0.0	0.0	0.0	0.0	0.0	0.0	0.0	0.0	0.0	0.0	0.0	0.04746179866339853	0.1718463672164054	0.0346912455806908	0.0	0.0	0.0	0.0	0.0	0.0	0.0	0.0	0.0	0.0	0.0	0.0	0.0	0.0	0.0	0.0	0.0	0.0	0.0	0.0	0.0	0.0	0.0	0.0	0.0	0.0	0.0	0.0	0.0	0.0	0.0	0.0	0.0
158	2.6333333333333333	0.45387191071462696	0.7168011945979018	0.054045573667099805	0.0	0.0	0.0	2.1796880957126934	1.829551049884688	0.15681947649517766	0.0	0.0	0.0	2.4772330750630385	2.0657967116749036	0.15586869696410716	2.181467460870179	1.8028763215400847	0.17087194400373162	0.0	0.0	0.0	0.0	0.0	0.0	0.0	0.0	0.0	0.0	0.0	0.0	0.0	0.0	0.0	0.0	0.0	0.0	0.0	0.0	0.0	0.0	0.0	0.0	0.0	0.0	0.0	0.017946890295530565	0.06492612395604155	0.013106164020650048	0.0	0.0	0.0	0.0	0.0	0.0	0.0	0.0	0.0	0.0	0.0	0.0	0.0	0.0	0.0	0.0	0.0	0.0	0.0	0.0	0.0	0.0	0.0	0.0	0.0	0.0	0.0	0.0	0.0	0.0	0.0	0.0	0.0
159	2.65	0.25546757054063	0.4032748972037816	0.030279713906721316	0.0	0.0	0.0	2.1743403457516184	1.823567232593847	0.15638671832702147	0.0	0.0	0.0	2.475526515217756	2.0663748189541216	0.15944807485489768	2.178011857572944	1.7996570141107369	0.16824137891597685	0.0	0.0	0.0	0.0	0.0	0.0	0.0	0.0	0.0	0.0	0.0	0.0	0.0	0.0	0.0	0.0	0.0	0.0	0.0	0.0	0.0	0.0	0.0	0.0	0.0	0.0	0.0	0.005398552672789927	0.019519123592543333	0.003940047280226743	0.0	0.0	0.0	0.0	0.0	0.0	0.0	0.0	0.0	0.0	0.0	0.0	0.0	0.0	0.0	0.0	0.0	0.0	0.0	0.0	0.0	0.0	0.0	0.0	0.0	0.0	0.0	0.0	0.0	0.0	0.0	0.0	0.0
160	2.6666666666666665	0.11784403842423123	0.1859495070619881	0.013919883448899542	0.0	0.0	0.0	2.1698248676746434	1.818925383340439	0.15643374987736153	0.0	0.0	0.0	2.473716035216301	2.0655987911422824	0.1628368969002259	2.1750872473950427	1.7974438346649466	0.16633730232933894	0.0	0.0	0.0	0.0	0.0	0.0	0.0	0.0	0.0	0.0	0.0	0.0	0.0	0.0	0.0	0.0	0.0	0.0	0.0	0.0	0.0	0.0	0.0	0.0	0.0	0.0	0.0	0.001286343497891906	0.004649214385410972	0.0009384512061298238	0.0	0.0	0.0	0.0	0.0	0.0	0.0	0.0	0.0	0.0	0.0	0.0	0.0	0.0	0.0	0.0	0.0	0.0	0.0	0.0	0.0	0.0	0.0	0.0	0.0	0.0	0.0	0.0	0.0	0.0	0.0	0.0	0.0
161	2.683333333333333	0.044042465079643704	0.06947220229101253	0.005189416531597064	0.0	0.0	0.0	2.1667002919333633	1.8160155276509586	0.15664801670604586	0.0	0.0	0.0	2.4720223691013246	2.063957053792369	0.1654305118018748	2.1730891362756157	1.7962528071983954	0.165263524269044	0.0	0.0	0.0	0.0	0.0	0.0	0.0	0.0	0.0	0.0	0.0	0.0	0.0	0.0	0.0	0.0	0.0	0.0	0.0	0.0	0.0	0.0	0.0	0.0	0.0	0.0	0.0	0.0002382543158413058	0.0008604945667727703	0.00017368393938640327	0.0	0.0	0.0	0.0	0.0	0.0	0.0	0.0	0.0	0.0	0.0	0.0	0.0	0.0	0.0	0.0	0.0	0.0	0.0	0.0	0.0	0.0	0.0	0.0	0.0	0.0	0.0	0.0	0.0	0.0	0.0	0.0	0.0
162	2.7	0.013631412281312186	0.02149915048229251	0.0016043928402011223	0.0	0.0	0.0	2.1647596290340747	1.8145796764964441	0.1567743385695432	0.0	0.0	0.0	2.470495108416125	2.0624057025869447	0.16696253864355598	2.1718885198272515	1.795812453203503	0.1648072159655448	0.0	0.0	0.0	0.0	0.0	0.0	0.0	0.0	0.0	0.0	0.0	0.0	0.0	0.0	0.0	0.0	0.0	0.0	0.0	0.0	0.0	0.0	0.0	0.0	0.0	0.0	0.0	3.16726159645391e-05	0.00011441771274675918	2.3095219505612937e-05	0.0	0.0	0.0	0.0	0.0	0.0	0.0	0.0	0.0	0.0	0.0	0.0	0.0	0.0	0.0	0.0	0.0	0.0	0.0	0.0	0.0	0.0	0.0	0.0	0.0	0.0	0.0	0.0	0.0	0.0	0.0	0.0	0.0
163	2.716666666666667	0.005684448301418828	0.008980175905142164	0.0006749787985865883	0.0	0.0	0.0	2.1633409675051434	1.8141009069032905	0.15668605064641233	0.0	0.0	0.0	2.4688853988616133	2.061567016767884	0.16753472612307502	2.1711098901056642	1.7958366254395708	0.16468256887225763	0.0	0.0	0.0	0.0	0.0	0.0	0.0	0.0	0.0	0.0	0.0	0.0	0.0	0.0	0.0	0.0	0.0	0.0	0.0	0.0	0.0	0.0	0.0	0.0	0.0	0.0	0.0	0.0	0.0	0.0	0.0	0.0	0.0	0.0	0.0	0.0	0.0	0.0	0.0	0.0	0.0	0.0	0.0	0.0	0.0	0.0	0.0	0.0	0.0	0.0	0.0	0.0	0.0	0.0	0.0	0.0	0.0	0.0	0.0	0.0	0.0	0.0	0.0
164	2.7333333333333334	0.01076371503293729	0.01704198460675502	0.001293650442598929	0.0	0.0	0.0	2.1618898667573405	1.8142101082157192	0.15633773620907201	0.0	0.0	0.0	2.4668956109345412	2.0615164831737856	0.1673562029646447	2.1704641848911264	1.7961452774041615	0.16470146570414157	0.0	0.0	0.0	0.0	0.0	0.0	0.0	0.0	0.0	0.0	0.0	0.0	0.0	0.0	0.0	0.0	0.0	0.0	0.0	0.0	0.0	0.0	0.0	0.0	0.0	0.0	0.0	0.0	0.0	0.0	0.0	0.0	0.0	0.0	0.0	0.0	0.0	0.0	0.0	0.0	0.0	0.0	0.0	0.0	0.0	0.0	0.0	0.0	0.0	0.0	0.0	0.0	0.0	0.0	0.0	0.0	0.0	0.0	0.0	0.0	0.0	0.0	0.0
165	2.75	0.03145856311900358	0.04981975652828936	0.003785830902440519	0.0	0.0	0.0	2.160448031187625	1.8148772295935376	0.15575722708894235	0.0	0.0	0.0	2.464602268461242	2.0620479585683844	0.16651105199591965	2.1698892498105584	1.7966912095413314	0.1648262999513826	0.0	0.0	0.0	0.0	0.0	0.0	0.0	0.0	0.0	0.0	0.0	0.0	0.0	0.0	0.0	0.0	0.0	0.0	0.0	0.0	0.0	0.0	0.0	0.0	0.0	0.0	0.0	3.2869909557060454e-05	0.00011547909944505302	2.383787560322816e-05	0.0	0.0	0.0	0.0	0.0	0.0	0.0	0.0	0.0	0.0	0.0	0.0	0.0	0.0	0.0	0.0	0.0	0.0	0.0	0.0	0.0	0.0	0.0	0.0	0.0	0.0	0.0	0.0	0.0	0.0	0.0	0.0	0.0
166	2.7666666666666666	0.07535920879728268	0.11934532393159868	0.009069643048093346	0.0	0.0	0.0	2.1598014634210543	1.8163731209099065	0.15509049454715473	0.0	0.0	0.0	2.462629980920169	2.0629594838627487	0.16491991858915309	2.1695251915110614	1.7975992950773305	0.16517771131261966	0.0	0.0	0.0	0.0	0.0	0.0	0.0	0.0	0.0	0.0	0.0	0.0	0.0	0.0	0.0	0.0	0.0	0.0	0.0	0.0	0.0	0.0	0.0	0.0	0.0	0.0	0.0	0.0002143387347232013	0.0007530183196598042	0.0001554424750215809	0.0	0.0	0.0	0.0	0.0	0.0	0.0	0.0	0.0	0.0	0.0	0.0	0.0	0.0	0.0	0.0	0.0	0.0	0.0	0.0	0.0	0.0	0.0	0.0	0.0	0.0	0.0	0.0	0.0	0.0	0.0	0.0	0.0
167	2.783333333333333	0.14122894944211034	0.22366333741862263	0.016997289474799573	0.0	0.0	0.0	2.161050505764576	1.819008759330229	0.1546244102993167	0.0	0.0	0.0	2.4618026685551135	2.0641393210971115	0.16248305101461558	2.169636372634539	1.7991654678803428	0.16600706651594607	0.0	0.0	0.0	0.0	0.0	0.0	0.0	0.0	0.0	0.0	0.0	0.0	0.0	0.0	0.0	0.0	0.0	0.0	0.0	0.0	0.0	0.0	0.0	0.0	0.0	0.0	0.0	0.0011213448034086133	0.003939684872760823	0.0008132543661167526	0.0	0.0	0.0	0.0	0.0	0.0	0.0	0.0	0.0	0.0	0.0	0.0	0.0	0.0	0.0	0.0	0.0	0.0	4.52278051882433e-05	0.00010599854790830022	-3.064989796426836e-06	0.0	0.0	0.0	0.0	0.0	0.0	0.0	0.0	0.0	0.0	0.0	0.0
168	2.8	0.20771744920233232	0.3289659270704793	0.024999773565300004	0.0	0.0	0.0	2.164759803369119	1.8227509825087278	0.15471572706730313	0.0	0.0	0.0	2.4625244456132354	2.065490566684292	0.15934174390840394	2.1705094296405023	1.8016704784968423	0.16756788407301926	0.0	0.0	0.0	0.0	0.0	0.0	0.0	0.0	0.0	0.0	0.0	0.0	0.0	0.0	0.0	0.0	0.0	0.0	0.0	0.0	0.0	0.0	0.0	0.0	0.0	0.0	0.0	0.004552308298216901	0.015993640674714094	0.0033015444397060632	0.0	0.0	0.0	0.0	0.0	0.0	0.0	0.0	0.0	0.0	0.0	0.0	0.0	0.0	0.0	0.0	0.0	0.0	0.0003379161413158666	0.0008048895003004135	-2.5023383260006353e-05	0.0	0.0	0.0	0.0	0.0	0.0	0.0	0.0	0.0	0.0	0.0	0.0
